<?xml version="1.0" encoding="UTF-8" standalone="no"?><!-- Generator: Gravit.io --><svg xmlns="http://www.w3.org/2000/svg" xmlns:xlink="http://www.w3.org/1999/xlink" style="isolation:isolate" viewBox="0 0 512 512" width="512pt" height="512pt"><defs><clipPath id="_clipPath_eXY6FFhYK4wOxkuqzNvZyXKJ4nIS1vIf"><rect width="512" height="512"/></clipPath></defs><g clip-path="url(#_clipPath_eXY6FFhYK4wOxkuqzNvZyXKJ4nIS1vIf)"><rect width="512" height="512" style="fill:rgb(255,63,63)" fill-opacity="0"/><g><path d=" M 147.58 341.866 L 107.357 341.866 L 107.357 146.111 L 147.58 146.111 L 147.58 250.156 L 167.424 250.156 L 198.262 194.379 L 243.044 194.379 L 202.016 266.514 L 243.849 341.866 L 198.262 341.866 L 167.156 283.944 L 147.58 283.944 L 147.58 341.866 Z  M 390.531 341.866 L 346.285 341.866 L 346.285 341.866 Q 323.76 341.866 310.888 328.995 L 310.888 328.995 L 310.888 328.995 Q 298.017 316.123 298.017 293.598 L 298.017 293.598 L 298.017 230.581 L 259.134 230.581 L 259.134 194.379 L 298.017 194.379 L 298.017 152.815 L 338.24 152.815 L 338.24 194.379 L 393.213 194.379 L 393.213 230.581 L 338.24 230.581 L 338.24 293.598 L 338.24 293.598 Q 338.24 305.665 350.307 305.665 L 350.307 305.665 L 390.531 305.665 L 390.531 341.866 Z " fill="rgb(255,255,255)"/><g><g opacity="0.58"><rect x="48.77" y="104.249" width="396.277" height="285.886" transform="matrix(1,0,0,1,0,0)" fill="rgb(74,134,232)"/></g><path d=" M 465.904 397.79 L 465.904 104.249 L 445.047 104.249 L 445.047 397.79 C 430.394 402.257 419.721 415.891 419.721 431.997 C 419.721 451.73 435.742 467.751 455.476 467.751 C 475.209 467.751 491.23 451.73 491.23 431.997 C 491.23 415.891 480.557 402.257 465.904 397.79 Z " fill="rgb(255,255,255)"/></g></g></g></svg>